<mxfile host="65bd71144e">
    <diagram id="sdAsbFZpwI-Q_Kf-QOKS" name="ページ1">
        <mxGraphModel dx="1013" dy="771" grid="1" gridSize="10" guides="1" tooltips="1" connect="1" arrows="1" fold="1" page="1" pageScale="1" pageWidth="827" pageHeight="1169" math="0" shadow="0">
            <root>
                <mxCell id="0"/>
                <mxCell id="1" parent="0"/>
                <mxCell id="2" value="&lt;font style=&quot;font-size: 30px&quot;&gt;A&lt;/font&gt;" style="rounded=0;whiteSpace=wrap;html=1;" parent="1" vertex="1">
                    <mxGeometry x="160" y="100" width="60" height="60" as="geometry"/>
                </mxCell>
                <mxCell id="3" value="&lt;font style=&quot;font-size: 30px&quot;&gt;B&lt;/font&gt;" style="rounded=0;whiteSpace=wrap;html=1;" parent="1" vertex="1">
                    <mxGeometry x="220" y="100" width="60" height="60" as="geometry"/>
                </mxCell>
                <mxCell id="4" value="&lt;font style=&quot;font-size: 30px&quot;&gt;A&lt;/font&gt;" style="rounded=0;whiteSpace=wrap;html=1;" parent="1" vertex="1">
                    <mxGeometry x="340" y="100" width="60" height="60" as="geometry"/>
                </mxCell>
                <mxCell id="5" value="&lt;font style=&quot;font-size: 30px&quot;&gt;A&lt;/font&gt;" style="rounded=0;whiteSpace=wrap;html=1;" parent="1" vertex="1">
                    <mxGeometry x="280" y="100" width="60" height="60" as="geometry"/>
                </mxCell>
                <mxCell id="6" value="&lt;font style=&quot;font-size: 30px&quot;&gt;B&lt;/font&gt;" style="rounded=0;whiteSpace=wrap;html=1;" parent="1" vertex="1">
                    <mxGeometry x="400" y="100" width="60" height="60" as="geometry"/>
                </mxCell>
                <mxCell id="9" value="&lt;font style=&quot;font-size: 30px&quot;&gt;C&lt;/font&gt;" style="rounded=0;whiteSpace=wrap;html=1;" parent="1" vertex="1">
                    <mxGeometry x="460" y="100" width="60" height="60" as="geometry"/>
                </mxCell>
                <mxCell id="16" value="&lt;font style=&quot;font-size: 30px&quot;&gt;A&lt;/font&gt;" style="rounded=0;whiteSpace=wrap;html=1;" parent="1" vertex="1">
                    <mxGeometry x="160" y="240" width="60" height="60" as="geometry"/>
                </mxCell>
                <mxCell id="17" value="&lt;font style=&quot;font-size: 30px&quot;&gt;B&lt;/font&gt;" style="rounded=0;whiteSpace=wrap;html=1;" parent="1" vertex="1">
                    <mxGeometry x="220" y="240" width="60" height="60" as="geometry"/>
                </mxCell>
                <mxCell id="18" value="&lt;font style=&quot;font-size: 30px&quot;&gt;C&lt;/font&gt;" style="rounded=0;whiteSpace=wrap;html=1;" parent="1" vertex="1">
                    <mxGeometry x="280" y="240" width="60" height="60" as="geometry"/>
                </mxCell>
                <mxCell id="21" value="文字列" style="text;strokeColor=none;fillColor=none;html=1;fontSize=24;fontStyle=1;verticalAlign=middle;align=center;" parent="1" vertex="1">
                    <mxGeometry x="90" y="50" width="100" height="40" as="geometry"/>
                </mxCell>
                <mxCell id="22" value="探索文字列" style="text;strokeColor=none;fillColor=none;html=1;fontSize=24;fontStyle=1;verticalAlign=middle;align=center;" parent="1" vertex="1">
                    <mxGeometry x="110" y="190" width="100" height="40" as="geometry"/>
                </mxCell>
            </root>
        </mxGraphModel>
    </diagram>
    <diagram id="Ki79_bPxpAsM41ZeEM3U" name="ページ2">
        <mxGraphModel dx="1013" dy="771" grid="1" gridSize="10" guides="1" tooltips="1" connect="1" arrows="1" fold="1" page="1" pageScale="1" pageWidth="827" pageHeight="1169" math="0" shadow="0">
            <root>
                <mxCell id="5TXifVaJO4pNGL5_tajR-0"/>
                <mxCell id="5TXifVaJO4pNGL5_tajR-1" parent="5TXifVaJO4pNGL5_tajR-0"/>
                <mxCell id="hfOH8rXVuP_WfxKvrqC0-0" value="&lt;font style=&quot;font-size: 30px&quot;&gt;A&lt;/font&gt;" style="rounded=0;whiteSpace=wrap;html=1;" parent="5TXifVaJO4pNGL5_tajR-1" vertex="1">
                    <mxGeometry x="120" y="70" width="60" height="60" as="geometry"/>
                </mxCell>
                <mxCell id="hfOH8rXVuP_WfxKvrqC0-1" value="&lt;font style=&quot;font-size: 30px&quot;&gt;B&lt;/font&gt;" style="rounded=0;whiteSpace=wrap;html=1;" parent="5TXifVaJO4pNGL5_tajR-1" vertex="1">
                    <mxGeometry x="180" y="70" width="60" height="60" as="geometry"/>
                </mxCell>
                <mxCell id="hfOH8rXVuP_WfxKvrqC0-2" value="&lt;font style=&quot;font-size: 30px&quot;&gt;A&lt;/font&gt;" style="rounded=0;whiteSpace=wrap;html=1;" parent="5TXifVaJO4pNGL5_tajR-1" vertex="1">
                    <mxGeometry x="300" y="70" width="60" height="60" as="geometry"/>
                </mxCell>
                <mxCell id="hfOH8rXVuP_WfxKvrqC0-3" value="&lt;font style=&quot;font-size: 30px&quot;&gt;A&lt;/font&gt;" style="rounded=0;whiteSpace=wrap;html=1;" parent="5TXifVaJO4pNGL5_tajR-1" vertex="1">
                    <mxGeometry x="240" y="70" width="60" height="60" as="geometry"/>
                </mxCell>
                <mxCell id="hfOH8rXVuP_WfxKvrqC0-4" value="&lt;font style=&quot;font-size: 30px&quot;&gt;B&lt;/font&gt;" style="rounded=0;whiteSpace=wrap;html=1;" parent="5TXifVaJO4pNGL5_tajR-1" vertex="1">
                    <mxGeometry x="360" y="70" width="60" height="60" as="geometry"/>
                </mxCell>
                <mxCell id="hfOH8rXVuP_WfxKvrqC0-5" value="&lt;font style=&quot;font-size: 30px&quot;&gt;C&lt;/font&gt;" style="rounded=0;whiteSpace=wrap;html=1;" parent="5TXifVaJO4pNGL5_tajR-1" vertex="1">
                    <mxGeometry x="420" y="70" width="60" height="60" as="geometry"/>
                </mxCell>
                <mxCell id="hfOH8rXVuP_WfxKvrqC0-6" value="&lt;font style=&quot;font-size: 30px&quot;&gt;A&lt;/font&gt;" style="rounded=0;whiteSpace=wrap;html=1;" parent="5TXifVaJO4pNGL5_tajR-1" vertex="1">
                    <mxGeometry x="120" y="160" width="60" height="60" as="geometry"/>
                </mxCell>
                <mxCell id="hfOH8rXVuP_WfxKvrqC0-7" value="&lt;font style=&quot;font-size: 30px&quot;&gt;B&lt;/font&gt;" style="rounded=0;whiteSpace=wrap;html=1;" parent="5TXifVaJO4pNGL5_tajR-1" vertex="1">
                    <mxGeometry x="180" y="160" width="60" height="60" as="geometry"/>
                </mxCell>
                <mxCell id="hfOH8rXVuP_WfxKvrqC0-8" value="&lt;font style=&quot;font-size: 30px&quot;&gt;C&lt;/font&gt;" style="rounded=0;whiteSpace=wrap;html=1;" parent="5TXifVaJO4pNGL5_tajR-1" vertex="1">
                    <mxGeometry x="240" y="160" width="60" height="60" as="geometry"/>
                </mxCell>
                <mxCell id="hfOH8rXVuP_WfxKvrqC0-11" value="1回目" style="text;strokeColor=none;fillColor=none;html=1;fontSize=24;fontStyle=1;verticalAlign=middle;align=center;" parent="5TXifVaJO4pNGL5_tajR-1" vertex="1">
                    <mxGeometry x="10" y="170" width="100" height="40" as="geometry"/>
                </mxCell>
                <mxCell id="hfOH8rXVuP_WfxKvrqC0-12" value="&lt;font style=&quot;font-size: 30px&quot;&gt;A&lt;/font&gt;" style="rounded=0;whiteSpace=wrap;html=1;" parent="5TXifVaJO4pNGL5_tajR-1" vertex="1">
                    <mxGeometry x="180" y="300" width="60" height="60" as="geometry"/>
                </mxCell>
                <mxCell id="hfOH8rXVuP_WfxKvrqC0-13" value="&lt;font style=&quot;font-size: 30px&quot;&gt;B&lt;/font&gt;" style="rounded=0;whiteSpace=wrap;html=1;" parent="5TXifVaJO4pNGL5_tajR-1" vertex="1">
                    <mxGeometry x="240" y="300" width="60" height="60" as="geometry"/>
                </mxCell>
                <mxCell id="hfOH8rXVuP_WfxKvrqC0-14" value="&lt;font style=&quot;font-size: 30px&quot;&gt;C&lt;/font&gt;" style="rounded=0;whiteSpace=wrap;html=1;" parent="5TXifVaJO4pNGL5_tajR-1" vertex="1">
                    <mxGeometry x="300" y="300" width="60" height="60" as="geometry"/>
                </mxCell>
                <mxCell id="hfOH8rXVuP_WfxKvrqC0-15" value="2回目" style="text;strokeColor=none;fillColor=none;html=1;fontSize=24;fontStyle=1;verticalAlign=middle;align=center;" parent="5TXifVaJO4pNGL5_tajR-1" vertex="1">
                    <mxGeometry x="10" y="310" width="100" height="40" as="geometry"/>
                </mxCell>
                <mxCell id="hfOH8rXVuP_WfxKvrqC0-16" value="⭕" style="text;strokeColor=none;fillColor=none;html=1;fontSize=24;fontStyle=1;verticalAlign=middle;align=center;" parent="5TXifVaJO4pNGL5_tajR-1" vertex="1">
                    <mxGeometry x="125" y="230" width="50" height="40" as="geometry"/>
                </mxCell>
                <mxCell id="hfOH8rXVuP_WfxKvrqC0-20" value="⭕" style="text;strokeColor=none;fillColor=none;html=1;fontSize=24;fontStyle=1;verticalAlign=middle;align=center;" parent="5TXifVaJO4pNGL5_tajR-1" vertex="1">
                    <mxGeometry x="185" y="230" width="50" height="40" as="geometry"/>
                </mxCell>
                <mxCell id="hfOH8rXVuP_WfxKvrqC0-22" value="×" style="text;strokeColor=none;fillColor=none;html=1;fontSize=24;fontStyle=1;verticalAlign=middle;align=center;" parent="5TXifVaJO4pNGL5_tajR-1" vertex="1">
                    <mxGeometry x="245" y="230" width="50" height="40" as="geometry"/>
                </mxCell>
                <mxCell id="hfOH8rXVuP_WfxKvrqC0-24" value="×" style="text;strokeColor=none;fillColor=none;html=1;fontSize=24;fontStyle=1;verticalAlign=middle;align=center;" parent="5TXifVaJO4pNGL5_tajR-1" vertex="1">
                    <mxGeometry x="185" y="367" width="50" height="40" as="geometry"/>
                </mxCell>
                <mxCell id="hfOH8rXVuP_WfxKvrqC0-27" value="ナイーブ法" style="text;strokeColor=none;fillColor=none;html=1;fontSize=24;fontStyle=1;verticalAlign=middle;align=center;" parent="5TXifVaJO4pNGL5_tajR-1" vertex="1">
                    <mxGeometry x="40" y="10" width="100" height="40" as="geometry"/>
                </mxCell>
                <mxCell id="hfOH8rXVuP_WfxKvrqC0-28" value="&lt;font style=&quot;font-size: 30px&quot;&gt;A&lt;/font&gt;" style="rounded=0;whiteSpace=wrap;html=1;" parent="5TXifVaJO4pNGL5_tajR-1" vertex="1">
                    <mxGeometry x="240" y="431" width="60" height="60" as="geometry"/>
                </mxCell>
                <mxCell id="hfOH8rXVuP_WfxKvrqC0-29" value="&lt;font style=&quot;font-size: 30px&quot;&gt;B&lt;/font&gt;" style="rounded=0;whiteSpace=wrap;html=1;" parent="5TXifVaJO4pNGL5_tajR-1" vertex="1">
                    <mxGeometry x="300" y="431" width="60" height="60" as="geometry"/>
                </mxCell>
                <mxCell id="hfOH8rXVuP_WfxKvrqC0-30" value="&lt;font style=&quot;font-size: 30px&quot;&gt;C&lt;/font&gt;" style="rounded=0;whiteSpace=wrap;html=1;" parent="5TXifVaJO4pNGL5_tajR-1" vertex="1">
                    <mxGeometry x="360" y="431" width="60" height="60" as="geometry"/>
                </mxCell>
                <mxCell id="hfOH8rXVuP_WfxKvrqC0-31" value="3回目" style="text;strokeColor=none;fillColor=none;html=1;fontSize=24;fontStyle=1;verticalAlign=middle;align=center;" parent="5TXifVaJO4pNGL5_tajR-1" vertex="1">
                    <mxGeometry x="10" y="442" width="100" height="40" as="geometry"/>
                </mxCell>
                <mxCell id="hfOH8rXVuP_WfxKvrqC0-32" value="⭕" style="text;strokeColor=none;fillColor=none;html=1;fontSize=24;fontStyle=1;verticalAlign=middle;align=center;" parent="5TXifVaJO4pNGL5_tajR-1" vertex="1">
                    <mxGeometry x="245" y="503" width="50" height="40" as="geometry"/>
                </mxCell>
                <mxCell id="hfOH8rXVuP_WfxKvrqC0-33" value="×" style="text;strokeColor=none;fillColor=none;html=1;fontSize=24;fontStyle=1;verticalAlign=middle;align=center;" parent="5TXifVaJO4pNGL5_tajR-1" vertex="1">
                    <mxGeometry x="305" y="503" width="50" height="40" as="geometry"/>
                </mxCell>
                <mxCell id="hfOH8rXVuP_WfxKvrqC0-35" value="&lt;font style=&quot;font-size: 30px&quot;&gt;A&lt;/font&gt;" style="rounded=0;whiteSpace=wrap;html=1;" parent="5TXifVaJO4pNGL5_tajR-1" vertex="1">
                    <mxGeometry x="300" y="560" width="60" height="60" as="geometry"/>
                </mxCell>
                <mxCell id="hfOH8rXVuP_WfxKvrqC0-36" value="&lt;font style=&quot;font-size: 30px&quot;&gt;B&lt;/font&gt;" style="rounded=0;whiteSpace=wrap;html=1;" parent="5TXifVaJO4pNGL5_tajR-1" vertex="1">
                    <mxGeometry x="360" y="560" width="60" height="60" as="geometry"/>
                </mxCell>
                <mxCell id="hfOH8rXVuP_WfxKvrqC0-37" value="&lt;font style=&quot;font-size: 30px&quot;&gt;C&lt;/font&gt;" style="rounded=0;whiteSpace=wrap;html=1;" parent="5TXifVaJO4pNGL5_tajR-1" vertex="1">
                    <mxGeometry x="420" y="560" width="60" height="60" as="geometry"/>
                </mxCell>
                <mxCell id="hfOH8rXVuP_WfxKvrqC0-38" value="4回目" style="text;strokeColor=none;fillColor=none;html=1;fontSize=24;fontStyle=1;verticalAlign=middle;align=center;" parent="5TXifVaJO4pNGL5_tajR-1" vertex="1">
                    <mxGeometry x="14" y="571" width="100" height="40" as="geometry"/>
                </mxCell>
                <mxCell id="hfOH8rXVuP_WfxKvrqC0-39" value="⭕" style="text;strokeColor=none;fillColor=none;html=1;fontSize=24;fontStyle=1;verticalAlign=middle;align=center;" parent="5TXifVaJO4pNGL5_tajR-1" vertex="1">
                    <mxGeometry x="305" y="632" width="50" height="40" as="geometry"/>
                </mxCell>
                <mxCell id="hfOH8rXVuP_WfxKvrqC0-40" value="⭕" style="text;strokeColor=none;fillColor=none;html=1;fontSize=24;fontStyle=1;verticalAlign=middle;align=center;" parent="5TXifVaJO4pNGL5_tajR-1" vertex="1">
                    <mxGeometry x="365" y="632" width="50" height="40" as="geometry"/>
                </mxCell>
                <mxCell id="hfOH8rXVuP_WfxKvrqC0-41" value="⭕" style="text;strokeColor=none;fillColor=none;html=1;fontSize=24;fontStyle=1;verticalAlign=middle;align=center;" parent="5TXifVaJO4pNGL5_tajR-1" vertex="1">
                    <mxGeometry x="425" y="632" width="50" height="40" as="geometry"/>
                </mxCell>
            </root>
        </mxGraphModel>
    </diagram>
</mxfile>